# xmcd
#
# Track frame offsets: 
#        150
#        13945
#        32722
#        46180
#        68177
#        83740
#        99150
#        120680
#        134325
#        148005
#        161527
#        174275
#        187547
#        205510
#        223312
#        240002
#
# Disc length: 3375 seconds
#
# Revision: 1
# Processed by: cddbd v1.5.2PL0 Copyright (c) Steve Scherf et al.
# Submitted via: ExactAudioCopyFreeDBPlugin 1.0
#
DISCID=c90d2d10
DTITLE=Monster Hits - MH1070
DYEAR=1900
DGENRE=Karaoke
TTITLE0=Alan Jackson - Love's Got A Hold On You
TTITLE1=Little Texas - What Might Have Been
TTITLE2=Mark Chesnutt - It Sure Is Monday
TTITLE3=Garth Brooks - The River
TTITLE4=John Michael Montgomery - Life's A Dance
TTITLE5=Tim McGraw - I Like It, I Love It
TTITLE6=Clint Black - We Tell Ourselves
TTITLE7=Alabama - I'm In A Hurry (and Don't know why)
TTITLE8=Sammy Kershaw - She Don't Know She's beautiful
TTITLE9=John Anderson - Money In The Bank
TTITLE10=Clay Walker - What's It To You
TTITLE11=Brooks and Dunn - Brand New Man
TTITLE12=Joe Diffie - Pickup Man
TTITLE13=Dwight Yoakam - You're The One
TTITLE14=Diamond Rio - Meet In The Middle
TTITLE15=Vince Gill - One More Last Chance
EXTD=MediaType: Karaoke CD+G Producer: Monster Hits
EXTT0=
EXTT1=
EXTT2=
EXTT3=
EXTT4=
EXTT5=
EXTT6=
EXTT7=
EXTT8=
EXTT9=
EXTT10=
EXTT11=
EXTT12=
EXTT13=
EXTT14=
EXTT15=
PLAYORDER=
